HIERARCHY
ROOT Hips
{
	OFFSET 0.000000 0.000000 0.000000
	CHANNELS 6 Xposition Yposition Zposition Yrotation Xrotation Zrotation
	JOINT Chest
	{
		OFFSET 0.000000 -0.009281 11.569106
		CHANNELS 3 Yrotation Xrotation Zrotation
		JOINT Chest2
		{
			OFFSET -0.000000 0.016865 9.269641
			CHANNELS 3 Yrotation Xrotation Zrotation
			JOINT Chest3
			{
				OFFSET -0.000000 0.000001 8.374491
				CHANNELS 3 Yrotation Xrotation Zrotation
				JOINT Chest4
				{
					OFFSET -0.000000 0.000001 8.374493
					CHANNELS 3 Yrotation Xrotation Zrotation
					JOINT Neck
					{
						OFFSET -0.000000 0.000002 12.152554
						CHANNELS 3 Yrotation Xrotation Zrotation
						JOINT Head
						{
							OFFSET -0.000000 0.040101 7.802319
							CHANNELS 3 Yrotation Xrotation Zrotation
							End Site
							{
								OFFSET -0.000000 0.020947 14.853096
							}
						}
					}
					JOINT RightCollar
					{
						OFFSET 2.894404 0.000001 6.791374
						CHANNELS 3 Yrotation Xrotation Zrotation
						JOINT RightShoulder
						{
							OFFSET 13.574684 0.000001 0.000000
							CHANNELS 3 Yrotation Xrotation Zrotation
							JOINT RightElbow
							{
								OFFSET 23.923903 0.000002 0.000000
								CHANNELS 3 Yrotation Xrotation Zrotation
								JOINT RightWrist
								{
									OFFSET 19.846718 0.012767 0.000000
									CHANNELS 3 Yrotation Xrotation Zrotation
									End Site
									{
										OFFSET 14.973145 0.000001 0.000000
									}
								}
							}
						}
					}
					JOINT LeftCollar
					{
						OFFSET -2.894404 0.000001 6.791374
						CHANNELS 3 Yrotation Xrotation Zrotation
						JOINT LeftShoulder
						{
							OFFSET -13.574684 -0.000001 0.000000
							CHANNELS 3 Yrotation Xrotation Zrotation
							JOINT LeftElbow
							{
								OFFSET -23.923903 -0.000002 0.000000
								CHANNELS 3 Yrotation Xrotation Zrotation
								JOINT LeftWrist
								{
									OFFSET -19.846718 0.012763 0.000000
									CHANNELS 3 Yrotation Xrotation Zrotation
									End Site
									{
										OFFSET -14.973145 -0.000001 0.000000
									}
								}
							}
						}
					}
				}
			}
		}
	}
	JOINT RightHip
	{
		OFFSET 9.469263 0.004643 0.045487
		CHANNELS 3 Yrotation Xrotation Zrotation
		JOINT RightKnee
		{
			OFFSET 0.000000 0.002661 -40.478676
			CHANNELS 3 Yrotation Xrotation Zrotation
			JOINT RightAnkle
			{
				OFFSET 0.000000 0.049106 -35.224068
				CHANNELS 3 Yrotation Xrotation Zrotation
				JOINT RightToe
				{
					OFFSET -0.000001 12.539529 -6.151390
					CHANNELS 3 Yrotation Xrotation Zrotation
					End Site
					{
						OFFSET -0.000001 5.044994 -1.291870
					}
				}
			}
		}
	}
	JOINT LeftHip
	{
		OFFSET -9.469263 0.004641 0.045487
		CHANNELS 3 Yrotation Xrotation Zrotation
		JOINT LeftKnee
		{
			OFFSET 0.000000 0.002661 -40.478676
			CHANNELS 3 Yrotation Xrotation Zrotation
			JOINT LeftAnkle
			{
				OFFSET 0.000000 0.049106 -35.224068
				CHANNELS 3 Yrotation Xrotation Zrotation
				JOINT LeftToe
				{
					OFFSET -0.000001 12.539529 -6.151390
					CHANNELS 3 Yrotation Xrotation Zrotation
					End Site
					{
						OFFSET -0.000001 5.044994 -1.291870
					}
				}
			}
		}
	}
}
MOTION
Frames: 15
Frame Time: 0.016667
10.891757 4.062845 82.923004 -4.944861 -1.633454 -111.951472 0.144974 -1.426710 2.305484 0.073897 -0.629907 0.995073 0.073897 -0.629907 0.995074 0.056448 -0.472312 0.746374 1.242875 -15.080381 -14.437280 -2.952646 7.146643 -26.514169 6.387005 10.208128 1.335424 51.560497 29.568299 62.513347 -32.133004 -7.973501 65.487922 -15.428195 -32.436097 -8.430563 -11.568828 0.397021 -3.899461 -58.878006 36.672245 -13.305163 0.031348 40.026807 -2.856197 53.052835 11.112513 2.133947 0.114617 -8.594700 0.318372 0.300938 -1.707238 2.484133 -0.255900 5.471591 -4.585593 0.143753 0.076980 -0.020805 -1.006698 -8.104675 2.465306 0.323594 -2.256960 4.909636 0.271769 5.244644 -0.849437 0.016081 -0.047204 0.024889 
10.882810 4.125872 82.925575 -5.040838 -1.664019 -111.857065 0.240109 -1.463711 2.307453 0.117480 -0.646894 0.994681 0.117480 -0.646895 0.994681 0.089162 -0.484981 0.746128 1.212968 -15.222548 -14.348318 -2.948693 6.894084 -26.339247 6.434069 10.080526 1.303630 51.573030 29.193055 61.883098 -32.296693 -8.260382 65.067572 -22.745727 -31.523413 -3.094329 -11.628403 0.305841 -4.051127 -59.561353 36.049339 -13.824772 -0.154522 40.578833 -3.149418 54.332420 12.324019 2.551351 0.081441 -8.634139 0.262974 0.304243 -1.803005 2.422879 -0.258185 5.488298 -4.562112 0.146430 0.077775 -0.022886 -1.039355 -8.109348 2.349928 0.321767 -2.390469 4.887586 0.318010 5.282965 -0.803604 0.013609 -0.044901 0.026750 
10.874453 4.189566 82.927528 -5.144398 -1.696646 -111.743937 0.338720 -1.521590 2.289415 0.161973 -0.672150 0.985835 0.161973 -0.672149 0.985833 0.122563 -0.503852 0.739544 1.178062 -15.344356 -14.243587 -2.953111 6.680121 -26.139974 6.471959 9.723351 1.345706 51.750550 29.095144 61.511782 -31.954688 -8.595853 64.541784 -30.379848 -29.517721 2.654714 -11.653353 0.268068 -4.114117 -60.266441 35.298595 -14.380480 -0.457721 41.380168 -3.621724 55.672711 13.429792 2.859944 0.054318 -8.692796 0.188776 0.301710 -1.881161 2.345449 -0.256427 5.500792 -4.539209 0.148163 0.077499 -0.023367 -1.067601 -8.119820 2.216319 0.312595 -2.525695 4.849288 0.374001 5.323495 -0.743411 0.009035 -0.045675 0.028735 
10.868735 4.253392 82.928711 -5.251811 -1.732433 -111.638103 0.451262 -1.595973 2.256616 0.212741 -0.704048 0.971940 0.212741 -0.704048 0.971940 0.160673 -0.527700 0.729194 1.126336 -15.445638 -14.114631 -2.984785 6.503884 -25.904864 6.490049 9.196836 1.429808 52.309093 29.317347 61.462980 -31.637552 -9.227707 64.082611 -37.921586 -26.458922 8.725916 -11.665208 0.211568 -4.150440 -61.009442 34.617711 -15.021396 -0.790811 42.209295 -4.124524 56.671627 14.249205 2.984439 0.030474 -8.762480 0.092809 0.286938 -1.948990 2.290637 -0.240173 5.513303 -4.505990 0.145381 0.074454 -0.023111 -1.103065 -8.142626 2.103659 0.318052 -2.650186 4.798653 0.425915 5.360899 -0.688088 0.003496 -0.046888 0.029327 
10.863953 4.316381 82.929146 -5.348433 -1.770384 -111.532939 0.584559 -1.658902 2.211210 0.273098 -0.730878 0.951644 0.273098 -0.730877 0.951646 0.205960 -0.547734 0.714051 1.047146 -15.540197 -13.963101 -3.061037 6.337688 -25.638765 6.495106 8.737937 1.502213 52.984964 29.531327 61.467782 -31.646633 -10.027048 63.661427 -44.768028 -22.457341 14.451997 -11.706246 0.109321 -4.256506 -61.643461 34.083703 -15.633436 -1.145236 42.782041 -4.512419 57.405466 14.921407 3.165972 0.004378 -8.827494 -0.015941 0.288353 -2.009781 2.254841 -0.227222 5.522705 -4.461617 0.139015 0.072620 -0.022058 -1.129780 -8.163428 1.995428 0.318143 -2.763000 4.756360 0.475739 5.397460 -0.642295 0.002205 -0.051654 0.029787 
10.859482 4.376609 82.929428 -5.439275 -1.804070 -111.445786 0.719869 -1.716907 2.187381 0.332947 -0.755581 0.940964 0.332947 -0.755581 0.940965 0.250871 -0.566176 0.706123 0.958965 -15.634390 -13.810788 -3.153886 6.170386 -25.374617 6.514994 8.424623 1.526716 53.484186 29.594455 61.315202 -31.812938 -10.692118 63.238543 -50.391893 -18.277670 19.168991 -11.744850 0.108855 -4.364838 -62.183681 33.471619 -16.141156 -1.459183 43.162387 -4.877781 58.102077 15.666540 3.624685 -0.028364 -8.885737 -0.104343 0.296494 -2.067708 2.216644 -0.213350 5.533325 -4.414865 0.129451 0.068042 -0.022584 -1.153004 -8.186705 1.924360 0.309595 -2.861744 4.715089 0.519330 5.427159 -0.624693 0.006344 -0.053878 0.032015 
10.856172 4.435575 82.930199 -5.522126 -1.831547 -111.387442 0.848985 -1.772806 2.185498 0.389390 -0.779633 0.940988 0.389390 -0.779634 0.940990 0.293239 -0.584127 0.706227 0.868275 -15.733532 -13.651736 -3.248402 5.994511 -25.098333 6.553912 8.042487 1.552710 53.802500 29.630334 61.114347 -31.997165 -11.050354 62.840548 -54.033763 -15.121822 22.366723 -11.719386 0.090971 -4.437601 -62.778017 32.749432 -16.724654 -1.778986 43.730720 -5.340668 58.917219 16.512269 4.086752 -0.071072 -8.928848 -0.157650 0.313492 -2.132042 2.181780 -0.202988 5.546250 -4.392506 0.118776 0.063035 -0.025078 -1.182648 -8.206776 1.884580 0.301355 -2.954880 4.660567 0.561057 5.454106 -0.594060 0.011542 -0.052184 0.034938 
10.850650 4.493441 82.931114 -5.598804 -1.850142 -111.315261 0.978412 -1.821506 2.173507 0.445317 -0.801187 0.935391 0.445318 -0.801186 0.935390 0.335210 -0.600210 0.702115 0.769230 -15.840592 -13.479700 -3.352723 5.804374 -24.800019 6.567492 7.539219 1.578722 54.126094 29.694985 61.019551 -31.742761 -11.236252 62.332894 -56.349880 -13.060257 24.488202 -11.692005 0.050822 -4.508188 -63.343475 32.077936 -17.376488 -2.074269 44.378727 -5.792927 59.609656 17.141468 4.362271 -0.121528 -8.957435 -0.214172 0.336469 -2.211546 2.140833 -0.196765 5.567496 -4.346986 0.111537 0.059535 -0.026914 -1.213361 -8.211665 1.798994 0.288507 -3.055268 4.620225 0.603566 5.480399 -0.543198 0.016888 -0.049693 0.037133 
10.844310 4.551832 82.931969 -5.678352 -1.870860 -111.256849 1.111238 -1.862360 2.153011 0.503053 -0.819204 0.926406 0.503052 -0.819204 0.926407 0.378526 -0.613642 0.695468 0.654251 -15.959509 -13.279664 -3.475137 5.593510 -24.454022 6.587061 7.170441 1.577694 54.436942 29.640091 60.911648 -30.918668 -11.428797 61.594680 -58.196060 -10.978742 26.148952 -11.665578 -0.016161 -4.612436 -63.815789 31.559173 -18.001097 -2.369482 44.800047 -6.169907 60.068085 17.630468 4.601877 -0.165967 -8.980046 -0.249081 0.354073 -2.301993 2.104033 -0.195831 5.589583 -4.341830 0.107688 0.056897 -0.027993 -1.246026 -8.212036 1.727028 0.277221 -3.174220 4.572618 0.647363 5.515028 -0.486454 0.019788 -0.045448 0.038177 
10.838413 4.609795 82.932571 -5.768560 -1.895665 -111.208778 1.240137 -1.910876 2.135321 0.559539 -0.840094 0.918914 0.559538 -0.840094 0.918909 0.420910 -0.629232 0.689941 0.538253 -16.077323 -13.066121 -3.595598 5.386460 -24.083729 6.638811 7.091332 1.570217 54.705676 29.398084 60.627792 -30.181363 -11.704426 60.732676 -59.903621 -8.770731 27.770277 -11.625288 -0.103391 -4.737570 -64.242314 31.085441 -18.621515 -2.709657 45.041372 -6.564049 60.532538 18.166471 4.980063 -0.215194 -9.012373 -0.254077 0.373578 -2.397451 2.042301 -0.196335 5.614304 -4.321348 0.107814 0.054810 -0.027777 -1.279559 -8.217451 1.655545 0.266269 -3.309568 4.529708 0.691378 5.558640 -0.433776 0.020543 -0.041277 0.037995 
10.833102 4.670052 82.932510 -5.870508 -1.917759 -111.142662 1.356137 -1.958417 2.124193 0.610403 -0.860719 0.914310 0.610403 -0.860719 0.914309 0.459083 -0.644629 0.686577 0.441381 -16.202148 -12.859102 -3.682216 5.169264 -23.718144 6.689950 7.026770 1.548766 55.024827 29.202846 60.311643 -29.950229 -12.093833 59.930737 -61.634206 -6.444550 29.445106 -11.587981 -0.115005 -4.892546 -64.555075 30.485856 -19.135127 -3.113836 45.378701 -7.095342 61.048101 18.726854 5.491640 -0.272659 -9.049103 -0.279439 0.402595 -2.507720 1.992087 -0.204052 5.649976 -4.311766 0.108362 0.050735 -0.028310 -1.327641 -8.222683 1.543779 0.269230 -3.461958 4.503040 0.732528 5.607874 -0.367078 0.019669 -0.037684 0.037282 
10.827904 4.733241 82.931526 -5.974655 -1.944372 -111.099031 1.473573 -2.006050 2.125887 0.662543 -0.881290 0.916063 0.662542 -0.881290 0.916067 0.498219 -0.659977 0.687990 0.348069 -16.333168 -12.649988 -3.760972 4.941575 -23.346970 6.718293 6.716054 1.564279 55.379935 29.207542 60.119141 -30.040302 -12.483834 59.234413 -63.235428 -4.112666 30.939729 -11.559571 -0.099963 -5.019839 -64.809363 29.845068 -19.649962 -3.634029 45.860919 -7.751822 61.486613 19.253829 6.002881 -0.333512 -9.081428 -0.323268 0.431345 -2.629439 1.986057 -0.209366 5.691157 -4.312269 0.107867 0.044775 -0.027796 -1.381792 -8.225676 1.447697 0.281083 -3.630365 4.492971 0.771865 5.667994 -0.308017 0.016276 -0.035446 0.034917 
10.822695 4.796276 82.930077 -6.074103 -1.970540 -111.041254 1.608913 -2.048372 2.113579 0.722995 -0.899331 0.911587 0.722995 -0.899331 0.911585 0.543578 -0.673423 0.684744 0.237572 -16.472755 -12.428599 -3.866227 4.696505 -22.958291 6.738839 6.297230 1.603812 55.632225 29.263225 59.934760 -29.946958 -12.712131 58.498958 -64.428498 -1.595552 32.167254 -11.544305 -0.124151 -5.094993 -65.094455 29.282086 -20.218142 -4.257808 46.280453 -8.494682 61.866528 19.650902 6.435088 -0.396362 -9.108357 -0.386542 0.469709 -2.757805 1.989134 -0.220281 5.737741 -4.296954 0.108193 0.039359 -0.026172 -1.433220 -8.223403 1.350821 0.292394 -3.798170 4.492452 0.813290 5.729674 -0.271344 0.011465 -0.036462 0.032948 
10.819671 4.856340 82.928871 -6.170211 -1.995091 -110.978519 1.756521 -2.077425 2.090198 0.788926 -0.911180 0.901458 0.788926 -0.911182 0.901461 0.593028 -0.682226 0.677258 0.105324 -16.636060 -12.183423 -4.000026 4.407091 -22.530547 6.761224 6.011122 1.617146 55.859124 29.198505 59.636390 -29.624030 -12.890734 57.704355 -65.508454 0.893333 33.354679 -11.553385 -0.161444 -5.150495 -65.355901 28.778558 -20.741382 -4.931508 46.535821 -9.295289 62.267358 19.993519 6.780966 -0.461777 -9.130461 -0.472337 0.515163 -2.896129 2.027934 -0.236803 5.791701 -4.284795 0.107453 0.035778 -0.024945 -1.481765 -8.227118 1.290718 0.303088 -3.949877 4.476661 0.857806 5.785130 -0.254995 0.003891 -0.037697 0.032367 
10.820198 4.914182 82.928818 -6.272311 -2.019871 -110.909506 1.903538 -2.098610 2.057620 0.854669 -0.920110 0.886272 0.854669 -0.920110 0.886272 0.642324 -0.688847 0.665979 -0.045788 -16.809751 -11.907650 -4.157441 4.099396 -22.051875 6.780742 5.868354 1.583983 56.169037 28.996315 59.259391 -29.311719 -13.105799 56.938250 -66.409909 3.277343 34.448520 -11.583440 -0.221701 -5.257249 -65.529887 28.274546 -21.210871 -5.609877 46.770998 -10.108656 62.710275 20.314173 7.008677 -0.527994 -9.158679 -0.558832 0.569137 -3.038341 2.082237 -0.263783 5.845639 -4.329850 0.106727 0.036659 -0.025040 -1.528094 -8.249195 1.251935 0.308709 -4.079897 4.455594 0.904143 5.829619 -0.254537 -0.001987 -0.036952 0.032896 
